<?xml version="1.0" standalone="no"?>
<!DOCTYPE svg PUBLIC "-//W3C//DTD SVG 20010904//EN"
 "http://www.w3.org/TR/2001/REC-SVG-20010904/DTD/svg10.dtd">
<svg version="1.0" xmlns="http://www.w3.org/2000/svg"
 width="324.000000pt" height="324.000000pt" viewBox="0 0 324.000000 324.000000"
 preserveAspectRatio="xMidYMid meet">
<metadata>
Created by potrace 1.11, written by Peter Selinger 2001-2013
</metadata>
<g transform="translate(0.000000,324.000000) scale(0.100000,-0.100000)"
fill="#000000" stroke="none">
<path d="M2232 3039 c-168 -31 -273 -190 -240 -365 12 -65 64 -141 126 -183
31 -21 146 -63 154 -56 2 1 25 5 51 8 154 19 268 151 263 307 -6 188 -171 323
-354 289z"/>
<path d="M2089 2271 c-104 -41 -182 -118 -244 -241 -15 -30 -33 -66 -40 -80
-7 -14 -41 -95 -75 -180 -34 -85 -64 -157 -66 -159 -7 -8 -15 6 -20 35 -21
123 -62 232 -117 314 -70 104 -202 203 -307 231 -50 13 -228 17 -276 6 -60
-13 -153 -46 -178 -63 -15 -9 -26 -14 -26 -10 0 8 -141 -66 -212 -112 -57 -37
-75 -59 -39 -47 20 6 34 9 111 25 67 13 197 4 271 -19 111 -35 233 -130 298
-231 8 -14 18 -27 21 -30 3 -3 6 -12 6 -20 1 -8 5 -30 8 -47 12 -64 23 -213
31 -423 5 -143 13 -244 20 -280 3 -14 8 -41 11 -60 9 -49 48 -126 80 -155 51
-47 155 -56 227 -18 129 66 192 152 294 395 103 249 251 554 263 542 8 -9 15
-60 26 -184 2 -30 6 -73 8 -95 3 -22 7 -125 10 -230 10 -311 27 -484 56 -560
5 -14 8 -25 5 -25 -8 0 45 -119 79 -176 88 -150 221 -243 370 -258 38 -4 46
-2 51 14 4 11 4 23 2 27 -5 8 -17 111 -23 198 -4 58 -12 167 -19 240 -2 28 -7
109 -10 180 -3 72 -8 164 -10 205 -3 41 -7 210 -10 375 -5 287 -11 429 -21
478 -2 12 -7 36 -10 52 -35 201 -141 328 -320 385 -71 23 -169 24 -225 1z"/>
</g>
</svg>
